<?xml version="1.0" encoding="UTF-8"?>
<svg width="56px" height="67px" viewBox="0 0 56 67" version="1.1" xmlns="http://www.w3.org/2000/svg" xmlns:xlink="http://www.w3.org/1999/xlink">
    <!-- Generator: Sketch 49.3 (51167) - http://www.bohemiancoding.com/sketch -->
    <title>finger-print</title>
    <desc>Created with Sketch.</desc>
    <defs></defs>
    <g id="Onboarding" stroke="none" stroke-width="1" fill="none" fill-rule="evenodd">
        <g id="Signup-Fingerprint" transform="translate(-160.000000, -254.000000)" fill="#00CAF2">
            <g id="Page-1" transform="translate(160.000000, 254.000000)">
                <g id="finger-print">
                    <path d="M45.1561457,6 C45.0151222,6 44.8722584,5.96584747 44.7412721,5.89381963 C39.6568948,3.10529013 33.8677342,1.63122825 28.0001156,1.63122825 C22.1326643,1.63122825 16.3435036,3.10529013 11.2587918,5.89381963 C10.8546246,6.11589199 10.3393782,5.97814886 10.1096921,5.5864469 C9.88017328,5.19458307 10.0225352,4.69670075 10.4275389,4.4746284 C15.7648552,1.54738461 21.8414163,0 28.0001156,0 C34.1588149,0 40.2350414,1.54738461 45.5723577,4.4746284 C45.9773614,4.69670075 46.1197233,5.19458307 45.8905391,5.5864469 C45.7351287,5.85125037 45.4499031,6 45.1561457,6" id="Fill-3"></path>
                    <path d="M54.1633423,22 C53.8723491,22 53.5884979,21.8409673 53.4348627,21.5572406 C48.1390191,11.8056075 38.2017344,5.74797187 27.4999282,5.74797187 C16.7982881,5.74797187 6.8608373,11.8056075 1.56515979,21.5572406 C1.33694937,21.9771076 0.825718175,22.1234801 0.424107705,21.8862318 C0.021998959,21.6482898 -0.118847062,21.114828 0.10903117,20.694961 C5.70101682,10.3972059 16.1967029,4 27.4999282,4 C38.8033197,4 49.2990057,10.3972059 54.8911575,20.694961 C55.1187035,21.114828 54.9780236,21.6482898 54.5759148,21.8862318 C54.4450343,21.9634069 54.3031918,22 54.1633423,22" id="Fill-5"></path>
                    <path d="M1.44515198,47 C1.02260174,47 0.6578777,46.6828325 0.607091218,46.2511416 C0.204319214,42.8097228 0,39.2927959 0,35.7963857 C0,20.4695937 12.4282735,8 27.7044451,8 C42.9807844,8 55.4090579,20.4695937 55.4090579,35.7963857 C55.4090579,38.0448107 55.6029852,40.2096555 55.9849733,42.2317245 C56.0721316,42.691836 55.7712678,43.1347943 55.3125133,43.2220742 C54.8539264,43.3103631 54.412436,43.0076582 54.3254453,42.5473785 C53.9235114,40.4222216 53.7195274,38.1507574 53.7195274,35.7963857 C53.7195274,21.4039429 42.0490284,9.6949795 27.7044451,9.6949795 C13.3595266,9.6949795 1.68936289,21.4039429 1.68936289,35.7963857 C1.68936289,39.2265371 1.88965941,42.6772053 2.28522409,46.0532062 C2.33936282,46.5180265 2.00799359,46.9397954 1.54488121,46.9939459 C1.51119117,46.997982 1.47783635,47 1.44515198,47" id="Fill-7"></path>
                    <path d="M7.43830128,57 C7.05889553,57 6.71310587,56.7470434 6.61428469,56.3662702 C4.87959294,49.6751345 4,42.6902212 4,35.6057648 C4,22.5897115 14.6926203,12 27.8353302,12 C40.97804,12 51.6708293,22.5897115 51.6708293,35.6057648 C51.6708293,40.2715751 52.4543038,44.6521401 53.9372972,48.2755085 C54.1141618,48.7076426 53.904019,49.1988334 53.4685301,49.374163 C53.0321966,49.547987 52.5358947,49.3405359 52.3590301,48.9092383 C50.7949527,45.0862818 49.9682333,40.4863874 49.9682333,35.6057648 C49.9682333,23.5193937 40.0391544,13.6862097 27.8353302,13.6862097 C15.6313371,13.6862097 5.70259598,23.5193937 5.70259598,35.6057648 C5.70259598,42.5491879 6.56411394,49.392566 8.26366927,55.9466836 C8.38039651,56.3978898 8.10606216,56.8576283 7.65080904,56.9735667 C7.57952265,56.9913004 7.50857412,57 7.43830128,57" id="Fill-9"></path>
                    <path d="M13.1845338,62 C12.838408,62 12.514009,61.785516 12.3910015,61.4419751 C9.47742751,53.2935797 8,44.5543541 8,35.4685901 C8,24.7335638 16.76529,16 27.5394802,16 C38.3133362,16 47.0787933,24.7335638 47.0787933,35.4685901 C47.0787933,41.8887903 48.3996202,47.7086683 50.8978765,52.2984271 C51.1196578,52.7055804 50.9682382,53.21498 50.5596058,53.435792 C50.1503049,53.6574366 49.6385534,53.5060655 49.4172736,53.0989122 C46.7853133,48.2638623 45.3944591,42.1673865 45.3944591,35.4685901 C45.3944591,25.6589426 37.3849301,17.6784043 27.5394802,17.6784043 C17.6940303,17.6784043 9.68450134,25.6589426 9.68450134,35.4685901 C9.68450134,44.2371242 11.1691154,53.0234764 13.9780661,60.8789545 C14.1339982,61.3155827 13.9053647,61.7953409 13.4671503,61.9513747 C13.3737247,61.9841801 13.2782936,62 13.1845338,62" id="Fill-11"></path>
                    <path d="M18.5703615,65 C18.2490599,65 17.942506,64.8111778 17.8051367,64.4953602 C14.0073481,55.7565698 12,45.7281072 12,35.4937783 C12,26.9504941 18.8926574,20 27.3646474,20 C35.8364716,20 42.7292947,26.9504941 42.7292947,35.4937783 C42.7292947,43.2682389 44.5560246,50.4850892 47.8721093,55.8150545 C48.1173524,56.2090746 47.9992049,56.7287533 47.6091358,56.9755589 C47.2190666,57.2235343 46.7030619,57.1043925 46.457653,56.7103724 C42.976692,51.1152205 41.0593216,43.5807145 41.0593216,35.4937783 C41.0593216,27.8792318 34.9159814,21.6840264 27.3646474,21.6840264 C19.813479,21.6840264 13.6701388,27.8792318 13.6701388,35.4937783 C13.6701388,45.497176 15.6289354,55.2920338 19.3349235,63.8192766 C19.5198501,64.2453797 19.3277982,64.7421658 18.9054167,64.9289828 C18.7960515,64.9769403 18.6822123,65 18.5703615,65" id="Fill-13"></path>
                    <path d="M23.8708994,66 C23.5573484,66 23.255075,65.8328477 23.1029985,65.5429844 C18.456292,56.6950229 16,46.2591145 16,35.3645323 C16,29.0979793 21.2533038,24 27.710746,24 C34.1683591,24 39.421492,29.0979793 39.421492,35.3645323 C39.421492,44.1257669 41.6657312,52.2517234 45.7403566,58.2453273 L45.8627013,58.4237557 C46.120377,58.8121195 46.0046963,59.3289982 45.6050256,59.5790633 C45.2055257,59.8284652 44.6727453,59.7168645 44.414557,59.3285007 L44.2993889,59.1606851 C40.0443222,52.9019259 37.699439,44.4487954 37.699439,35.3645323 C37.699439,30.0198043 33.2184789,25.6711913 27.710746,25.6711913 C22.2031839,25.6711913 17.7222238,30.0198043 17.7222238,35.3645323 C17.7222238,45.9967782 20.1134134,56.1700187 24.6374334,64.7843318 C24.8534162,65.1955796 24.684936,65.6990264 24.2610013,65.9084642 C24.1359227,65.970483 24.0024712,66 23.8708994,66" id="Fill-15"></path>
                    <path d="M28.3649482,67 C28.0731012,67 27.7902495,66.8456433 27.6351641,66.570743 C22.6402826,57.6956563 20,46.9508757 20,35.4972039 C20,31.3632174 23.3137628,28 27.3869609,28 C31.4603255,28 34.7742549,31.3632174 34.7742549,35.4972039 C34.7742549,45.2176175 37.1979843,54.3025143 41.5991771,61.0783163 L41.6346585,61.1320791 C41.7041221,61.237914 41.7724196,61.3417201 41.8452148,61.4462025 C42.1134075,61.8296428 42.0242876,62.3613534 41.6459859,62.6337177 C41.2686837,62.905913 40.7439587,62.8161392 40.475766,62.4320227 C40.3933092,62.3141842 40.3158498,62.1963456 40.2372244,62.075971 L40.2004104,62.0200104 C35.6176461,54.9652506 33.0953017,45.5469568 33.0953017,35.4972039 C33.0953017,32.3028828 30.5343109,29.7040099 27.3869609,29.7040099 C24.2394442,29.7040099 21.6787866,32.3028828 21.6787866,35.4972039 C21.6787866,46.4955826 24.3119062,57.2303884 29.0928999,65.7254162 C29.3231126,66.1340472 29.1826862,66.6545994 28.7807302,66.8875715 C28.648966,66.9641581 28.5060409,67 28.3649482,67" id="Fill-17"></path>
                    <path d="M33.0316926,66 C32.7404482,66 32.4554412,65.8588788 32.2896346,65.6019143 C26.9441492,57.3003712 24,46.5656173 24,35.3743538 C24,33.5136631 25.5667593,32 27.492333,32 C29.41808,32 30.9848393,33.5136631 30.9848393,35.3743538 C30.9848393,45.8466189 33.7792947,55.6727063 38.8536336,63.0428159 C39.1209685,63.4303552 39.0118169,63.9543284 38.6100349,64.2119625 C38.2082528,64.4702662 37.6666527,64.3648019 37.4000109,63.9774301 C32.1368223,56.3336156 29.2385861,46.175567 29.2385861,35.3743538 C29.2385861,34.4442595 28.4549466,33.6870932 27.492333,33.6870932 C26.5295462,33.6870932 25.7460799,34.4442595 25.7460799,35.3743538 C25.7460799,46.2547488 28.5966705,56.6729427 33.7725377,64.7109925 C34.0275714,65.1063997 33.9021336,65.6268574 33.4922086,65.8727733 C33.3489254,65.9591535 33.1893561,66 33.0316926,66" id="Fill-19"></path>
                </g>
            </g>
        </g>
    </g>
</svg>