<?xml version="1.0" encoding="UTF-8"?>
<svg width="17px" height="20px" viewBox="0 0 17 20" version="1.1" xmlns="http://www.w3.org/2000/svg" xmlns:xlink="http://www.w3.org/1999/xlink">
    <!-- Generator: Sketch 49.2 (51160) - http://www.bohemiancoding.com/sketch -->
    <title>notif-0</title>
    <desc>Created with Sketch.</desc>
    <defs>
        <path d="M8.5,0 L8.5,0 C12.0898509,-6.59444907e-16 15,2.91014913 15,6.5 L15,12 L17,16 L0,16 L2,12 L2,6.5 C2,2.91014913 4.91014913,6.59444907e-16 8.5,0 Z" id="path-1"></path>
        <path d="M5,15 L12,15 L12,16.5 C12,18.4329966 10.4329966,20 8.5,20 L8.5,20 C6.56700338,20 5,18.4329966 5,16.5 L5,15 Z" id="path-2"></path>
    </defs>
    <g id="Schools-" stroke="none" stroke-width="1" fill="none" fill-rule="evenodd">
        <g id="Tab-Menu" transform="translate(-226.000000, -29.000000)">
            <g id="Group-41" transform="translate(0.000000, 10.000000)">
                <g id="notif-0" transform="translate(226.000000, 19.000000)">
                    <g id="Rectangle-9">
                        <use fill="#F4F6F9" fill-rule="evenodd" xlink:href="#path-1"></use>
                        <path stroke="#B4B4B6" stroke-width="1" d="M0.809016994,15.5 L16.190983,15.5 L14.5,12.118034 L14.5,6.5 C14.5,3.1862915 11.8137085,0.5 8.5,0.5 C5.1862915,0.5 2.5,3.1862915 2.5,6.5 L2.5,12.118034 L0.809016994,15.5 Z"></path>
                    </g>
                    <g id="Rectangle">
                        <use fill="#F4F6F9" fill-rule="evenodd" xlink:href="#path-2"></use>
                        <path stroke="#B4B4B6" stroke-width="1" d="M5.5,15.5 L5.5,16.5 C5.5,18.1568542 6.84314575,19.5 8.5,19.5 C10.1568542,19.5 11.5,18.1568542 11.5,16.5 L11.5,15.5 L5.5,15.5 Z"></path>
                    </g>
                </g>
            </g>
        </g>
    </g>
</svg>