<?xml version="1.0" encoding="UTF-8"?>
<svg width="19px" height="23px" viewBox="0 0 19 23" version="1.1" xmlns="http://www.w3.org/2000/svg" xmlns:xlink="http://www.w3.org/1999/xlink">
    <!-- Generator: Sketch 49.2 (51160) - http://www.bohemiancoding.com/sketch -->
    <title>profile-0</title>
    <desc>Created with Sketch.</desc>
    <defs></defs>
    <g id="Schools-" stroke="none" stroke-width="1" fill="none" fill-rule="evenodd">
        <g id="Tab-Menu" transform="translate(-319.000000, -28.000000)" fill="#F4F6F9" stroke="#B4B4B6">
            <g id="Group-41" transform="translate(0.000000, 10.000000)">
                <g id="profile-0" transform="translate(320.000000, 19.000000)">
                    <g id="Page-1">
                        <path d="M6.26015011,13.5851064 C3.06207757,13.5851064 0.469062522,15.8693399 0.469062522,18.6871249 L0.469062522,19.2343153 C0.469062522,19.8775232 1.01218987,20.4219858 1.73677253,20.5 C3.23919778,20.6614839 13.7619252,20.6614839 15.2631118,20.5 C15.9883138,20.4219858 16.5314411,19.8775232 16.5314411,19.2343153 L16.5314411,18.6871249 C16.5314411,15.8693399 14.2288784,13.5851064 11.294009,13.5851064 L6.26015011,13.5851064 Z" id="Fill-1"></path>
                        <path d="M4.74179361,12.6993885 C4.70279647,12.6252517 4.22522751,12.2204099 4.18213025,12.1397251 C3.44553562,10.7607041 2.59701507,8.80590259 2.49295147,7.44545449 C2.19020178,3.4903044 5.5068751,0.386794562 8.81076623,0.386794562 C12.1146574,0.386794562 14.8729791,3.35463183 14.374253,7.44545449 C14.2262571,8.65544728 13.1933925,11.7209238 12.5770806,12.6993885 L4.74179361,12.6993885 Z" id="Combined-Shape"></path>
                        <path d="M8.59492697,15.5192308 C5.62976105,15.5192308 3.29447673,11.7833497 3.77337297,9.01595742 C4.2735535,6.12692869 9.03125466,7.76934876 10.3548707,4.06765742 C11.2248655,7.65691728 13.6080395,6.20977294 13.6080395,9.14022379 C13.6080395,12.1568064 11.5600929,15.5192308 8.59492697,15.5192308 Z" id="Fill-7"></path>
                    </g>
                </g>
            </g>
        </g>
    </g>
</svg>