<?xml version="1.0" encoding="UTF-8"?>
<svg width="23px" height="24px" viewBox="0 0 23 24" version="1.1" xmlns="http://www.w3.org/2000/svg" xmlns:xlink="http://www.w3.org/1999/xlink">
    <!-- Generator: Sketch 49.2 (51160) - http://www.bohemiancoding.com/sketch -->
    <title>schools-0</title>
    <desc>Created with Sketch.</desc>
    <defs>
        <rect id="path-1" x="1" y="12" width="21" height="12" rx="2"></rect>
        <path d="M3,11 L20,11 C21.6568542,11 23,12.3431458 23,14 L23,17 L0,17 L0,14 C-2.02906125e-16,12.3431458 1.34314575,11 3,11 Z" id="path-2"></path>
        <polygon id="path-3" points="5 10.4693878 11.5 4.5 18 10.4693878 18 24 5 24"></polygon>
        <rect id="path-4" x="11" y="0" width="5" height="4"></rect>
        <path d="M10,15 L13,15 C14.1045695,15 15,15.8954305 15,17 L15,24 L8,24 L8,17 C8,15.8954305 8.8954305,15 10,15 Z" id="path-5"></path>
    </defs>
    <g id="Schools-" stroke="none" stroke-width="1" fill="none" fill-rule="evenodd">
        <g id="Tab-Menu" transform="translate(-35.000000, -27.000000)">
            <g id="Group-41" transform="translate(0.000000, 10.000000)">
                <g id="schools-0" transform="translate(35.000000, 17.000000)">
                    <g id="Rectangle-4">
                        <use fill="#F4F6F9" fill-rule="evenodd" xlink:href="#path-1"></use>
                        <rect stroke="#B4B4B6" stroke-width="1" x="1.5" y="12.5" width="20" height="11" rx="2"></rect>
                    </g>
                    <g id="Rectangle-4-Copy">
                        <use fill="#F4F6F9" fill-rule="evenodd" xlink:href="#path-2"></use>
                        <path stroke="#B4B4B6" stroke-width="1" d="M0.5,16.5 L22.5,16.5 L22.5,14 C22.5,12.6192881 21.3807119,11.5 20,11.5 L3,11.5 C1.61928813,11.5 0.5,12.6192881 0.5,14 L0.5,16.5 Z"></path>
                    </g>
                    <g id="Rectangle-3">
                        <use fill="#F4F6F9" fill-rule="evenodd" xlink:href="#path-3"></use>
                        <path stroke="#B4B4B6" stroke-width="1" d="M5.5,10.6890632 L5.5,23.5 L17.5,23.5 L17.5,10.6890632 L11.5,5.17885908 L5.5,10.6890632 Z"></path>
                    </g>
                    <path d="M11.4649592,12.0469544 L11.4649592,10" id="Path-5" stroke="#B4B4B6"></path>
                    <g id="Rectangle-6">
                        <use fill="#F4F6F9" fill-rule="evenodd" xlink:href="#path-4"></use>
                        <rect stroke="#B4B4B6" stroke-width="1" x="11.5" y="0.5" width="4" height="3"></rect>
                    </g>
                    <g id="Rectangle-5">
                        <use fill="#F4F6F9" fill-rule="evenodd" xlink:href="#path-5"></use>
                        <path stroke="#B4B4B6" stroke-width="1" d="M8.5,23.5 L14.5,23.5 L14.5,17 C14.5,16.1715729 13.8284271,15.5 13,15.5 L10,15.5 C9.17157288,15.5 8.5,16.1715729 8.5,17 L8.5,23.5 Z"></path>
                    </g>
                    <path d="M11.5,4.5 L11.5,0.5" id="Line" stroke="#B4B4B6" stroke-linecap="square"></path>
                </g>
            </g>
        </g>
    </g>
</svg>