<?xml version="1.0" encoding="UTF-8"?>
<svg width="16px" height="20px" viewBox="0 0 16 20" version="1.1" xmlns="http://www.w3.org/2000/svg" xmlns:xlink="http://www.w3.org/1999/xlink">
    <!-- Generator: Sketch 50 (54983) - http://www.bohemiancoding.com/sketch -->
    <title>appl-1</title>
    <desc>Created with Sketch.</desc>
    <defs></defs>
    <g id="Schools-" stroke="none" stroke-width="1" fill="none" fill-rule="evenodd">
        <g id="Tab-Menu" transform="translate(-133.000000, -93.000000)" fill="#4A4A4A" fill-rule="nonzero">
            <g id="Group-41-Copy" transform="translate(0.000000, 79.000000)">
                <g id="appl-1" transform="translate(133.000000, 14.000000)">
                    <path d="M3,3 C1.8954305,3 1,3.8954305 1,5 L1,17 C1,18.1045695 1.8954305,19 3,19 L13,19 C14.1045695,19 15,18.1045695 15,17 L15,5 C15,3.8954305 14.1045695,3 13,3 L3,3 Z M3,2 L13,2 C14.6568542,2 16,3.34314575 16,5 L16,17 C16,18.6568542 14.6568542,20 13,20 L3,20 C1.34314575,20 2.02906125e-16,18.6568542 0,17 L0,5 C-2.02906125e-16,3.34314575 1.34314575,2 3,2 Z" id="Rectangle-8"></path>
                    <polygon id="Line-2" points="4 9 4 8 12 8 12 9"></polygon>
                    <polygon id="Line-2-Copy" points="4 12 4 11 12 11 12 12"></polygon>
                    <polygon id="Line-2-Copy-3" points="4 15 4 14 9 14 9 15"></polygon>
                    <polygon id="Line-3" points="2 1 2 0 14 0 14 1"></polygon>
                </g>
            </g>
        </g>
    </g>
</svg>