<?xml version="1.0" encoding="UTF-8"?>
<svg width="24px" height="24px" viewBox="0 0 24 24" version="1.1" xmlns="http://www.w3.org/2000/svg" xmlns:xlink="http://www.w3.org/1999/xlink">
    <!-- Generator: Sketch 49 (51002) - http://www.bohemiancoding.com/sketch -->
    <title>minus-blue</title>
    <desc>Created with Sketch.</desc>
    <defs></defs>
    <g id="Schools-" stroke="none" stroke-width="1" fill="none" fill-rule="evenodd">
        <g id="Visit-Visitors" transform="translate(-25.000000, -544.000000)" fill="#4773F6" fill-rule="nonzero">
            <g id="minus-blue" transform="translate(25.000000, 544.000000)">
                <g id="Group-23">
                    <path d="M4,1.5 C2.61928813,1.5 1.5,2.61928813 1.5,4 L1.5,20.5 C1.5,21.8807119 2.61928813,23 4,23 L20.5,23 C21.8807119,23 23,21.8807119 23,20.5 L23,4 C23,2.61928813 21.8807119,1.5 20.5,1.5 L4,1.5 Z M4,0.5 L20.5,0.5 C22.4329966,0.5 24,2.06700338 24,4 L24,20.5 C24,22.4329966 22.4329966,24 20.5,24 L4,24 C2.06700338,24 0.5,22.4329966 0.5,20.5 L0.5,4 C0.5,2.06700338 2.06700338,0.5 4,0.5 Z" id="Rectangle-4"></path>
                </g>
                <g id="Group-30" transform="translate(7.000000, 10.000000)">
                    <polygon id="Path-3" points="0.263394299 3.4866057 0.263394299 0.986605701 10.7366057 0.986605701 10.7366057 3.4866057"></polygon>
                </g>
            </g>
        </g>
    </g>
</svg>