<?xml version="1.0" encoding="UTF-8"?>
<svg width="17px" height="20px" viewBox="0 0 17 20" version="1.1" xmlns="http://www.w3.org/2000/svg" xmlns:xlink="http://www.w3.org/1999/xlink">
    <!-- Generator: Sketch 50 (54983) - http://www.bohemiancoding.com/sketch -->
    <title>notif-1</title>
    <desc>Created with Sketch.</desc>
    <defs></defs>
    <g id="Schools-" stroke="none" stroke-width="1" fill="none" fill-rule="evenodd">
        <g id="Tab-Menu" transform="translate(-226.000000, -92.000000)" fill="#4A4A4A" fill-rule="nonzero">
            <g id="Group-41-Copy" transform="translate(0.000000, 79.000000)">
                <g id="notif-1" transform="translate(226.000000, 13.000000)">
                    <path d="M14,12.236068 L14,6.5 C14,3.46243388 11.5375661,1 8.5,1 C5.46243388,1 3,3.46243388 3,6.5 L3,12.236068 L1.61803399,15 L15.381966,15 L14,12.236068 Z M8.5,0 C12.0898509,-6.59444907e-16 15,2.91014913 15,6.5 L15,12 L17,16 L0,16 L2,12 L2,6.5 C2,2.91014913 4.91014913,6.59444907e-16 8.5,0 Z" id="Rectangle-9"></path>
                    <path d="M6,16 L6,16.5 C6,17.8807119 7.11928813,19 8.5,19 C9.88071187,19 11,17.8807119 11,16.5 L11,16 L6,16 Z M5,15 L12,15 L12,16.5 C12,18.4329966 10.4329966,20 8.5,20 C6.56700338,20 5,18.4329966 5,16.5 L5,15 Z" id="Rectangle"></path>
                </g>
            </g>
        </g>
    </g>
</svg>