<?xml version="1.0" encoding="UTF-8"?>
<svg width="19px" height="23px" viewBox="0 0 19 23" version="1.1" xmlns="http://www.w3.org/2000/svg" xmlns:xlink="http://www.w3.org/1999/xlink">
    <!-- Generator: Sketch 50 (54983) - http://www.bohemiancoding.com/sketch -->
    <title>profile-1</title>
    <desc>Created with Sketch.</desc>
    <defs></defs>
    <g id="Schools-" stroke="none" stroke-width="1" fill="none" fill-rule="evenodd">
        <g id="Tab-Menu" transform="translate(-319.000000, -91.000000)" fill="#4A4A4A" fill-rule="nonzero">
            <g id="Group-41-Copy" transform="translate(0.000000, 79.000000)">
                <g id="profile-1" transform="translate(320.000000, 13.000000)">
                    <g id="Page-1">
                        <path d="M0.969062522,18.6871249 L0.969062522,19.2343153 C0.969062522,19.6105478 1.30978172,19.9511371 1.79020585,20.0028633 C3.25710391,20.1605287 13.7439897,20.1605287 15.2096325,20.0028683 C15.6906667,19.9511206 16.0314411,19.6105925 16.0314411,19.2343153 L16.0314411,18.6871249 C16.0314411,16.5505711 14.5541755,14.7238666 12.4555031,14.2209642 L12.2487153,14.2201649 C11.2571643,15.3617313 9.98811688,16.0192308 8.59492697,16.0192308 C7.25464722,16.0192308 5.98007438,15.3502968 4.97857554,14.2211194 C2.63740314,14.7275944 0.969062522,16.5686176 0.969062522,18.6871249 Z M5.57272439,13.3766048 C6.42217157,14.4168226 7.50051006,15.0192308 8.59492697,15.0192308 C9.73744518,15.0192308 10.792563,14.4403317 11.6267016,13.4054807 L11.777549,13.2183361 L12.5160255,13.2211907 L12.6252286,13.2336946 C15.202161,13.8211698 17.0314411,16.0613113 17.0314411,18.6871249 L17.0314411,19.2343153 C17.0314411,20.1461817 16.2840231,20.8930595 15.3165887,20.997132 C13.7798606,21.1624391 3.22129165,21.1624391 1.683248,20.9971269 C0.716327098,20.8930207 -0.0309374775,20.1460409 -0.0309374775,19.2343153 L-0.0309374775,18.6871249 C-0.0309374775,16.0053167 2.09193038,13.731293 5.07491847,13.1924268 L5.42342379,13.193774 L5.57272439,13.3766048 Z" id="Combined-Shape"></path>
                        <path d="M4.97640832,12.503547 L4.99833425,12.5384903 C5.86400659,14.0535407 7.21795318,15.0192308 8.59492697,15.0192308 C10.1601303,15.0192308 11.5708015,13.9133783 12.4300838,12.1115942 C13.3543702,10.4638909 13.6386009,9.34164644 13.8779278,7.3849458 C14.3223129,3.73985767 11.9543229,0.886794562 8.81076623,0.886794562 C5.60827038,0.886794562 2.72515432,3.92781912 2.9914951,7.40731982 C3.08479914,8.62710571 3.30079377,9.47176263 3.94801998,10.7780133 C4.15862146,11.2030553 4.6086059,11.9678186 4.97640832,12.503547 Z M3.05198002,11.2219867 C2.34488283,9.79490269 2.09708128,8.82586337 1.99440988,7.4836157 C1.68321311,3.41811217 5.03116321,-0.113205438 8.81076623,-0.113205438 C12.5700631,-0.113205438 15.3858542,3.27938901 14.8705544,7.50615782 C14.6167157,9.58150586 14.3045592,10.8140113 13.3175841,12.5711909 C12.3215288,14.6627709 10.5911725,16.0192308 8.59492697,16.0192308 C6.82406661,16.0192308 5.17055022,14.8440894 4.14039844,13.0526111 C3.74840295,12.4794214 3.28143158,11.6850725 3.05198002,11.2219867 Z" id="Combined-Shape"></path>
                        <path d="M7.36289251,7.18580779 C7.23647353,7.22555731 7.10523534,7.26510278 6.94860452,7.3109888 C6.85719192,7.33776871 6.74541742,7.37010583 6.54750815,7.42735222 C4.93888966,7.89457918 4.41623773,8.23373778 4.26605049,9.10121508 C4.0965499,10.0807062 4.32285228,11.251219 4.87892619,12.3196473 L3.99187637,12.781321 C3.33991725,11.528661 3.07143237,10.139966 3.2807022,8.93066082 C3.51949372,7.55140766 4.31702725,7.03387325 6.26858306,6.46703936 C7.03892156,6.24329277 6.85787773,6.29633073 7.06294344,6.23185258 C8.61799696,5.7429021 9.43955398,5.14244847 9.88406353,3.89931063 L10.446966,2.32506926 L10.8407997,3.94987387 C11.1083396,5.05363939 11.5050346,5.65539711 12.1256212,6.12254216 C12.2127865,6.18815562 12.3052541,6.2523734 12.4188485,6.32712489 C12.4815933,6.36841444 12.6977913,6.50750828 12.7267365,6.52636084 C13.7112326,7.16758155 14.1080395,7.78816094 14.1080395,9.14022379 C14.1080395,10.2405067 13.8543432,11.3869714 13.3856122,12.4245507 L12.4742899,12.0128569 C12.8853403,11.102959 13.1080395,10.0965718 13.1080395,9.14022379 C13.1080395,8.15673929 12.9013547,7.83349819 12.1809716,7.36429917 C12.1560938,7.34809578 11.9371247,7.20721916 11.8691381,7.16248015 C11.739289,7.07703221 11.6302945,7.00133663 11.5242173,6.92148725 C10.9863339,6.51659683 10.5722176,6.02488621 10.260497,5.34684189 C9.63395059,6.23186677 8.70207687,6.76473236 7.36289251,7.18580779 Z" id="Fill-7"></path>
                    </g>
                </g>
            </g>
        </g>
    </g>
</svg>