<?xml version="1.0" encoding="UTF-8"?>
<svg width="23px" height="24px" viewBox="0 0 23 24" version="1.1" xmlns="http://www.w3.org/2000/svg" xmlns:xlink="http://www.w3.org/1999/xlink">
    <!-- Generator: Sketch 50 (54983) - http://www.bohemiancoding.com/sketch -->
    <title>schools-0</title>
    <desc>Created with Sketch.</desc>
    <defs></defs>
    <g id="Schools-" stroke="none" stroke-width="1" fill="none" fill-rule="evenodd">
        <g id="Tab-Menu" transform="translate(-35.000000, -27.000000)" stroke="#B4B4B6">
            <g id="Group-41" transform="translate(0.000000, 10.000000)">
                <g id="schools-0" transform="translate(35.000000, 17.000000)">
                    <rect id="Rectangle-4" fill="#F4F6F9" x="1.5" y="12.5" width="20" height="11" rx="2"></rect>
                    <path d="M0.5,16.5 L22.5,16.5 L22.5,14 C22.5,12.6192881 21.3807119,11.5 20,11.5 L3,11.5 C1.61928813,11.5 0.5,12.6192881 0.5,14 L0.5,16.5 Z" id="Rectangle-4-Copy" fill="#F4F6F9"></path>
                    <path d="M5.5,10.6890632 L5.5,23.5 L17.5,23.5 L17.5,10.6890632 L11.5,5.17885908 L5.5,10.6890632 Z" id="Rectangle-3" fill="#F4F6F9"></path>
                    <path d="M11.4649592,12.0469544 L11.4649592,10" id="Path-5"></path>
                    <rect id="Rectangle-6" fill="#F4F6F9" x="11.5" y="0.5" width="4" height="3"></rect>
                    <path d="M8.5,23.5 L14.5,23.5 L14.5,17 C14.5,16.1715729 13.8284271,15.5 13,15.5 L10,15.5 C9.17157288,15.5 8.5,16.1715729 8.5,17 L8.5,23.5 Z" id="Rectangle-5" fill="#F4F6F9"></path>
                    <path d="M11.5,4.5 L11.5,0.5" id="Line" stroke-linecap="square"></path>
                </g>
            </g>
        </g>
    </g>
</svg>