<?xml version="1.0" encoding="UTF-8"?>
<svg width="23px" height="24px" viewBox="0 0 23 24" version="1.1" xmlns="http://www.w3.org/2000/svg" xmlns:xlink="http://www.w3.org/1999/xlink">
    <!-- Generator: Sketch 50 (54983) - http://www.bohemiancoding.com/sketch -->
    <title>schools-1</title>
    <desc>Created with Sketch.</desc>
    <defs></defs>
    <g id="Schools-" stroke="none" stroke-width="1" fill="none" fill-rule="evenodd">
        <g id="Tab-Menu" transform="translate(-35.000000, -88.000000)" fill="#4A4A4A" fill-rule="nonzero">
            <g id="Group-41-Copy" transform="translate(0.000000, 79.000000)">
                <g id="schools-1" transform="translate(35.000000, 9.000000)">
                    <path d="M1,16 L2,16 L2,22 C2,22.5522847 2.44771525,23 3,23 L20,23 C20.5522847,23 21,22.5522847 21,22 L21,16 L22,16 L22,14 C22,12.8954305 21.1045695,12 20,12 L17,12 L17,10.9087386 L11.5,5.85771815 L6,10.9087386 L6,12 L3,12 C1.8954305,12 1,12.8954305 1,14 L1,16 Z M3,11 L5,11 L5,10.4693878 L11.5,4.5 L18,10.4693878 L18,11 L20,11 C21.6568542,11 23,12.3431458 23,14 L23,17 L22,17 L22,22 C22,23.1045695 21.1045695,24 20,24 L3,24 C1.8954305,24 1,23.1045695 1,22 L1,17 L0,17 L0,14 C-2.02906125e-16,12.3431458 1.34314575,11 3,11 Z" id="Combined-Shape"></path>
                    <polygon id="Path-5" points="11.9649592 12.0469544 10.9649592 12.0469544 10.9649592 10 11.9649592 10"></polygon>
                    <path d="M12,1 L12,3 L15,3 L15,1 L12,1 Z M11,0 L16,0 L16,4 L11,4 L11,0 Z" id="Rectangle-6"></path>
                    <path d="M9,23 L14,23 L14,17 C14,16.4477153 13.5522847,16 13,16 L10,16 C9.44771525,16 9,16.4477153 9,17 L9,23 Z M10,15 L13,15 C14.1045695,15 15,15.8954305 15,17 L15,24 L8,24 L8,17 C8,15.8954305 8.8954305,15 10,15 Z" id="Rectangle-5"></path>
                    <polygon id="Line" points="12 5 11 5 11 0 12 0"></polygon>
                    <path d="M18,15.9846223 L21.5021961,16.0000048 L21.4978039,16.9999952 L18,16.9846319 L18,23.5 L17,23.5 L17,11 L18,11 L18,15.9846223 Z M5,16.0153681 L5,11 L6,11 L6,23.5 L5,23.5 L5,17.0153777 L1.49780389,16.9999952 L1.50219611,16.0000048 L5,16.0153681 Z" id="Combined-Shape"></path>
                </g>
            </g>
        </g>
    </g>
</svg>